<mxfile host="Electron" modified="2024-06-09T08:51:28.576Z" agent="Mozilla/5.0 (Windows NT 10.0; Win64; x64) AppleWebKit/537.36 (KHTML, like Gecko) draw.io/24.1.0 Chrome/120.0.6099.109 Electron/28.1.0 Safari/537.36" etag="YCads3Q6RiK0ZdAEPQos" version="24.1.0" type="device">
  <diagram name="Страница — 1" id="lPJ-UKmdfs0CzWleJaoH">
    <mxGraphModel dx="2212" dy="909" grid="1" gridSize="10" guides="1" tooltips="1" connect="1" arrows="1" fold="1" page="1" pageScale="1" pageWidth="650" pageHeight="200" math="0" shadow="0">
      <root>
        <mxCell id="0" />
        <mxCell id="1" parent="0" />
        <mxCell id="gzYTlGSDOrXHZOz67bhv-19" value="" style="edgeStyle=orthogonalEdgeStyle;rounded=0;orthogonalLoop=1;jettySize=auto;html=1;dashed=1;dashPattern=8 8;" parent="1" source="gzYTlGSDOrXHZOz67bhv-1" target="gzYTlGSDOrXHZOz67bhv-18" edge="1">
          <mxGeometry relative="1" as="geometry" />
        </mxCell>
        <mxCell id="gzYTlGSDOrXHZOz67bhv-39" value="" style="edgeStyle=orthogonalEdgeStyle;rounded=0;orthogonalLoop=1;jettySize=auto;html=1;" parent="1" source="gzYTlGSDOrXHZOz67bhv-1" edge="1">
          <mxGeometry relative="1" as="geometry">
            <mxPoint x="65" y="50" as="targetPoint" />
          </mxGeometry>
        </mxCell>
        <mxCell id="gzYTlGSDOrXHZOz67bhv-1" value="регается" style="rounded=0;whiteSpace=wrap;html=1;" parent="1" vertex="1">
          <mxGeometry x="20" width="90" height="30" as="geometry" />
        </mxCell>
        <mxCell id="gzYTlGSDOrXHZOz67bhv-5" value="" style="edgeStyle=orthogonalEdgeStyle;rounded=0;orthogonalLoop=1;jettySize=auto;html=1;" parent="1" source="gzYTlGSDOrXHZOz67bhv-2" target="gzYTlGSDOrXHZOz67bhv-4" edge="1">
          <mxGeometry relative="1" as="geometry" />
        </mxCell>
        <mxCell id="gzYTlGSDOrXHZOz67bhv-22" value="" style="edgeStyle=orthogonalEdgeStyle;rounded=0;orthogonalLoop=1;jettySize=auto;html=1;dashed=1;dashPattern=8 8;" parent="1" source="gzYTlGSDOrXHZOz67bhv-2" edge="1">
          <mxGeometry relative="1" as="geometry">
            <mxPoint x="420" y="119.99999999999989" as="targetPoint" />
          </mxGeometry>
        </mxCell>
        <mxCell id="gzYTlGSDOrXHZOz67bhv-42" value="" style="edgeStyle=orthogonalEdgeStyle;rounded=0;orthogonalLoop=1;jettySize=auto;html=1;startArrow=classic;startFill=1;endArrow=none;endFill=0;" parent="1" source="gzYTlGSDOrXHZOz67bhv-2" edge="1">
          <mxGeometry relative="1" as="geometry">
            <mxPoint x="65" y="80" as="targetPoint" />
          </mxGeometry>
        </mxCell>
        <mxCell id="gzYTlGSDOrXHZOz67bhv-2" value="вибрает адрес" style="rounded=0;whiteSpace=wrap;html=1;" parent="1" vertex="1">
          <mxGeometry x="20" y="100" width="90" height="40" as="geometry" />
        </mxCell>
        <mxCell id="gzYTlGSDOrXHZOz67bhv-24" value="" style="edgeStyle=orthogonalEdgeStyle;rounded=0;orthogonalLoop=1;jettySize=auto;html=1;dashed=1;dashPattern=12 12;" parent="1" source="gzYTlGSDOrXHZOz67bhv-4" target="gzYTlGSDOrXHZOz67bhv-23" edge="1">
          <mxGeometry relative="1" as="geometry" />
        </mxCell>
        <mxCell id="gzYTlGSDOrXHZOz67bhv-28" value="" style="edgeStyle=orthogonalEdgeStyle;rounded=0;orthogonalLoop=1;jettySize=auto;html=1;" parent="1" source="gzYTlGSDOrXHZOz67bhv-4" target="gzYTlGSDOrXHZOz67bhv-8" edge="1">
          <mxGeometry relative="1" as="geometry" />
        </mxCell>
        <mxCell id="gzYTlGSDOrXHZOz67bhv-4" value="покупает&lt;br&gt;+коментарий" style="rounded=0;whiteSpace=wrap;html=1;" parent="1" vertex="1">
          <mxGeometry x="20" y="160" width="90" height="40" as="geometry" />
        </mxCell>
        <mxCell id="gzYTlGSDOrXHZOz67bhv-9" value="" style="edgeStyle=orthogonalEdgeStyle;rounded=0;orthogonalLoop=1;jettySize=auto;html=1;" parent="1" source="gzYTlGSDOrXHZOz67bhv-6" target="gzYTlGSDOrXHZOz67bhv-8" edge="1">
          <mxGeometry relative="1" as="geometry" />
        </mxCell>
        <mxCell id="gzYTlGSDOrXHZOz67bhv-27" value="" style="edgeStyle=orthogonalEdgeStyle;rounded=0;orthogonalLoop=1;jettySize=auto;html=1;dashed=1;dashPattern=8 8;" parent="1" source="gzYTlGSDOrXHZOz67bhv-6" target="gzYTlGSDOrXHZOz67bhv-25" edge="1">
          <mxGeometry relative="1" as="geometry" />
        </mxCell>
        <mxCell id="gzYTlGSDOrXHZOz67bhv-6" value="заказ идет в предприятие" style="rounded=0;whiteSpace=wrap;html=1;" parent="1" vertex="1">
          <mxGeometry x="160" y="160" width="100" height="40" as="geometry" />
        </mxCell>
        <mxCell id="gzYTlGSDOrXHZOz67bhv-11" value="" style="edgeStyle=orthogonalEdgeStyle;rounded=0;orthogonalLoop=1;jettySize=auto;html=1;" parent="1" source="gzYTlGSDOrXHZOz67bhv-8" target="gzYTlGSDOrXHZOz67bhv-10" edge="1">
          <mxGeometry relative="1" as="geometry" />
        </mxCell>
        <mxCell id="gzYTlGSDOrXHZOz67bhv-8" value="чел готовит заказ" style="rounded=0;whiteSpace=wrap;html=1;" parent="1" vertex="1">
          <mxGeometry x="160" y="220" width="100" height="40" as="geometry" />
        </mxCell>
        <mxCell id="gzYTlGSDOrXHZOz67bhv-15" value="" style="edgeStyle=orthogonalEdgeStyle;rounded=0;orthogonalLoop=1;jettySize=auto;html=1;" parent="1" source="gzYTlGSDOrXHZOz67bhv-10" target="gzYTlGSDOrXHZOz67bhv-12" edge="1">
          <mxGeometry relative="1" as="geometry" />
        </mxCell>
        <mxCell id="gzYTlGSDOrXHZOz67bhv-10" value="оповещает что приготовил" style="rounded=0;whiteSpace=wrap;html=1;" parent="1" vertex="1">
          <mxGeometry x="160" y="280" width="100" height="40" as="geometry" />
        </mxCell>
        <mxCell id="gzYTlGSDOrXHZOz67bhv-17" value="" style="edgeStyle=orthogonalEdgeStyle;rounded=0;orthogonalLoop=1;jettySize=auto;html=1;" parent="1" source="gzYTlGSDOrXHZOz67bhv-12" target="gzYTlGSDOrXHZOz67bhv-16" edge="1">
          <mxGeometry relative="1" as="geometry" />
        </mxCell>
        <mxCell id="gzYTlGSDOrXHZOz67bhv-12" value="курьер принимает" style="rounded=0;whiteSpace=wrap;html=1;" parent="1" vertex="1">
          <mxGeometry x="15" y="330" width="100" height="40" as="geometry" />
        </mxCell>
        <mxCell id="gzYTlGSDOrXHZOz67bhv-16" value="доставляет" style="rounded=0;whiteSpace=wrap;html=1;" parent="1" vertex="1">
          <mxGeometry x="15" y="410" width="100" height="40" as="geometry" />
        </mxCell>
        <mxCell id="gzYTlGSDOrXHZOz67bhv-18" value="сервис реганья&lt;div&gt;&lt;br&gt;&lt;/div&gt;" style="rounded=0;whiteSpace=wrap;html=1;dashed=1;" parent="1" vertex="1">
          <mxGeometry x="420" y="45" width="120" height="30" as="geometry" />
        </mxCell>
        <mxCell id="gzYTlGSDOrXHZOz67bhv-20" value="сервис шавух" style="rounded=0;whiteSpace=wrap;html=1;dashed=1;" parent="1" vertex="1">
          <mxGeometry x="410" y="100" width="120" height="50" as="geometry" />
        </mxCell>
        <mxCell id="gzYTlGSDOrXHZOz67bhv-23" value="сервис оплаты" style="rounded=0;whiteSpace=wrap;html=1;dashed=1;" parent="1" vertex="1">
          <mxGeometry x="-190" y="155" width="120" height="50" as="geometry" />
        </mxCell>
        <mxCell id="gzYTlGSDOrXHZOz67bhv-25" value="сервис предпрития" style="rounded=0;whiteSpace=wrap;html=1;dashed=1;" parent="1" vertex="1">
          <mxGeometry x="420" y="162.5" width="120" height="35" as="geometry" />
        </mxCell>
        <mxCell id="gzYTlGSDOrXHZOz67bhv-30" value="" style="endArrow=classic;html=1;rounded=0;exitX=0.5;exitY=1;exitDx=0;exitDy=0;" parent="1" source="gzYTlGSDOrXHZOz67bhv-4" target="gzYTlGSDOrXHZOz67bhv-31" edge="1">
          <mxGeometry width="50" height="50" relative="1" as="geometry">
            <mxPoint x="70" y="210" as="sourcePoint" />
            <mxPoint x="50" y="310" as="targetPoint" />
          </mxGeometry>
        </mxCell>
        <mxCell id="gzYTlGSDOrXHZOz67bhv-31" value="курьер узнает о заказе&lt;div&gt;&lt;br&gt;&lt;/div&gt;" style="rounded=0;whiteSpace=wrap;html=1;" parent="1" vertex="1">
          <mxGeometry x="5" y="230" width="120" height="40" as="geometry" />
        </mxCell>
        <mxCell id="gzYTlGSDOrXHZOz67bhv-32" value="" style="endArrow=classic;html=1;rounded=0;exitX=0.5;exitY=1;exitDx=0;exitDy=0;entryX=0.5;entryY=0;entryDx=0;entryDy=0;" parent="1" source="gzYTlGSDOrXHZOz67bhv-31" target="gzYTlGSDOrXHZOz67bhv-12" edge="1">
          <mxGeometry width="50" height="50" relative="1" as="geometry">
            <mxPoint x="250" y="230" as="sourcePoint" />
            <mxPoint x="300" y="180" as="targetPoint" />
          </mxGeometry>
        </mxCell>
        <mxCell id="gzYTlGSDOrXHZOz67bhv-33" value="ЧАТ КЛИЕНТА С КУРЬЕРОМ&lt;div&gt;&lt;br&gt;&lt;/div&gt;" style="rounded=0;whiteSpace=wrap;html=1;dashed=1;" parent="1" vertex="1">
          <mxGeometry x="420" y="260" width="120" height="70" as="geometry" />
        </mxCell>
        <mxCell id="gzYTlGSDOrXHZOz67bhv-45" value="Заполенение меню" style="rounded=0;whiteSpace=wrap;html=1;" parent="1" vertex="1">
          <mxGeometry x="-190" y="45" width="120" height="60" as="geometry" />
        </mxCell>
        <mxCell id="gzYTlGSDOrXHZOz67bhv-46" value="" style="endArrow=classic;html=1;rounded=0;exitX=1;exitY=0.5;exitDx=0;exitDy=0;" parent="1" source="gzYTlGSDOrXHZOz67bhv-45" edge="1">
          <mxGeometry width="50" height="50" relative="1" as="geometry">
            <mxPoint x="-120" y="230" as="sourcePoint" />
            <mxPoint x="10" y="120" as="targetPoint" />
          </mxGeometry>
        </mxCell>
        <mxCell id="gzYTlGSDOrXHZOz67bhv-47" value="" style="rounded=0;whiteSpace=wrap;html=1;dashed=1;" parent="1" vertex="1">
          <mxGeometry x="260" y="35" width="120" height="60" as="geometry" />
        </mxCell>
        <mxCell id="gzYTlGSDOrXHZOz67bhv-48" value="" style="endArrow=none;dashed=1;html=1;strokeWidth=2;rounded=0;entryX=0;entryY=0.5;entryDx=0;entryDy=0;exitX=1;exitY=0.5;exitDx=0;exitDy=0;dashPattern=1 1;" parent="1" target="gzYTlGSDOrXHZOz67bhv-47" edge="1">
          <mxGeometry width="50" height="50" relative="1" as="geometry">
            <mxPoint x="110" y="65" as="sourcePoint" />
            <mxPoint x="250" y="180" as="targetPoint" />
          </mxGeometry>
        </mxCell>
        <mxCell id="gzYTlGSDOrXHZOz67bhv-51" value="выбирает шавуху" style="rounded=0;whiteSpace=wrap;html=1;" parent="1" vertex="1">
          <mxGeometry x="20" y="50" width="90" height="30" as="geometry" />
        </mxCell>
        <mxCell id="gzYTlGSDOrXHZOz67bhv-53" value="ПРОСМОТР СТАТУСА ЗАКАЗА" style="rounded=0;whiteSpace=wrap;html=1;" parent="1" vertex="1">
          <mxGeometry x="-180" y="260" width="130" height="70" as="geometry" />
        </mxCell>
      </root>
    </mxGraphModel>
  </diagram>
</mxfile>
